<svg width="438" height="523" viewBox="0 0 438 523" fill="none" xmlns="http://www.w3.org/2000/svg">
<path d="M265.333 2.46671C263.867 4.06671 264 4.86671 265.733 6.60004C266.8 7.80004 268.8 8.33337 269.867 7.93337C272.667 6.86671 272.667 2.20004 269.867 1.13337C267.067 0.0667064 267.2 0.0667064 265.333 2.46671Z" fill="white"/>
<path d="M277.467 16.3333C274.933 17.8 276.267 22.3333 279.333 22.3333C281.067 22.3333 282.133 21.2667 282.4 19.5333C282.8 16.4667 280.133 14.6 277.467 16.3333Z" fill="white"/>
<path d="M289.6 31.2667C287.467 33.4001 287.6 35.6667 290.133 38.2001C291.733 39.8001 292.8 39.9334 294.8 39.0001C298.133 37.1334 298.133 32.8667 294.8 31.0001C291.6 29.2667 291.6 29.2667 289.6 31.2667Z" fill="white"/>
<path d="M298.667 47.6667C298.667 48.0667 299.6 51.4 300.8 55.1333C302.267 59.4 302.8 64.4667 302.4 70.0667C300.4 98.3333 273.333 128.467 216.267 166.2C185.733 186.2 144.267 211 141.2 211C140.133 210.867 135.2 205.933 130 199.8C113.333 179.933 104.933 175.667 91.0666 179.667C84.5333 181.533 82 183.267 74.6666 190.867C69.3333 196.333 62.1333 206.2 56 216.333C44.9333 234.867 30 256.2 18.2666 270.333C-3.0667 296.067 -5.4667 319.133 10.1333 345.133C15.6 354.2 20.2666 358.467 31.4666 364.867C38.4 368.867 39.7333 370.333 41.3333 375.267C48 396.733 64.5333 412.867 88.6666 421.8C100.267 426.067 101.333 426.2 121.333 426.2L142 426.333L155.867 420.733L169.867 415.133L175.2 419.8C178.267 422.333 184.8 428.067 189.867 432.333C194.933 436.733 204.267 442.867 210.533 446.067C226.4 453.933 258.267 465.533 275.867 469.667L283.2 471.4L279.067 474.867C274 479.267 273.333 479.8 254 494.867C245.2 501.667 237.733 507.8 237.467 508.6C236.933 510.067 244.267 504.733 261.333 491.533C267.6 486.733 275.733 480.333 279.6 477.4L286.533 472.067L298.933 473.667C325.067 477.133 354.133 470.733 379.867 456.067C398.133 445.533 415.467 421.8 416.933 404.6C418 393 416 388.333 405.2 378.6C396.533 370.6 396.133 370.067 398.533 368.067C403.2 364.067 420.933 341 426.533 331.8C435.2 317.133 437.733 309.267 436.933 298.467C436.4 290.333 435.867 289 431.867 285C426.267 279.667 412.8 274.333 402 273.133C380.8 270.867 349.6 281.267 322.267 299.667C318.4 302.2 314.933 304.333 314.4 304.333C313.867 304.333 312.4 300.867 311.2 296.6C308.267 287 307.2 285.667 302.8 285.667C297.333 285.667 294.933 283.133 291.867 274.333C288 263.4 285.6 259 283.333 259C280.667 259 275.2 251.133 274.267 246.067C272.133 234.6 242.667 195.667 233.6 192.2C229.067 190.467 220.533 190.733 215.467 192.867C203.2 197.933 196.4 209.533 197.867 222.2C198.667 228.467 198.4 229.933 196.133 232.2C193.2 235.133 183.6 237 176 235.933C168.4 235 159.6 230.067 150.533 221.8C144 216.067 142.8 214.333 144.267 213C145.2 212.067 156.533 205.133 169.333 197.667C247.867 151.133 283.067 122.333 298.133 91.6667C302.133 83.6667 303.2 79.6667 303.733 71.8C304.267 62.0667 302.267 49 299.867 47.5333C299.2 47.1333 298.667 47.2667 298.667 47.6667ZM105.867 202.333C108 204.2 112.933 209.4 116.667 214.067L123.6 222.333L105.467 234.2C85.4666 247.4 70.5333 261.267 62 274.6C59.0666 279.267 56 283 55.0666 283C52.6666 283 48 276.333 48 272.867C48 271.133 51.4666 263.533 55.8666 255.933C85.6 203.8 89.2 199 97.8666 199C100.4 199 103.6 200.333 105.867 202.333ZM234.133 215.933C240.267 222.333 246.667 234.867 246.667 240.6C246.667 243.4 245.467 246.467 243.333 248.867C239.2 253.8 238.933 260.6 242.8 264.467C244.533 266.2 246.4 266.867 247.733 266.333C259.867 261.667 264.533 266.733 258.667 278.333C252.4 290.467 256.667 295.8 270.4 292.867C278 291.4 281.2 297.8 276.667 305.667C274 310.333 274.267 316.867 277.067 320.333L279.467 323.267L286.4 319.8C298.667 313.533 299.333 315.8 287.733 324.6C283.6 327.8 272.933 336.333 264 343.667C255.067 351 242.133 361.533 235.2 367.133L222.533 377.4L213.6 373.667C197.467 367 170.4 351.667 152.667 339.133C146.8 335.133 135.867 325.533 128.4 318.067C117.6 307.267 112.8 303.533 105.067 299.8C99.7333 297.267 92.6666 294.733 89.3333 294.333C80 293 59.7333 286.733 59.0666 284.867C58 282.2 71.4666 263.8 80.6666 255.267C87.8666 248.467 113.333 230.6 122.533 225.667C125.6 224.067 126.133 224.333 130.533 229.267C138 237.533 150.667 247.4 159.333 251.667C166.667 255.267 168.533 255.667 180.667 255.667C192.933 255.667 194.8 255.267 204 251.133C209.467 248.6 215.333 245.133 217.067 243.4C219.733 240.467 220 239.4 219.2 229C218.4 219.8 218.667 217.133 220.533 214.333C223.733 209.533 228.267 210.067 234.133 215.933ZM410.8 276.733C420.8 279.133 429.2 284.067 433.067 289.667C441.467 301.933 430.4 328.467 404.267 358.867C399.467 364.467 395.333 369.267 395.067 369.667C393.067 372.067 362.667 350.333 358.133 343.4C353.467 335.933 349.333 332.6 342.8 331.133C335.333 329.533 334.533 328.6 331.333 318.6L328.667 310.333H323.067C312.8 310.333 313.333 307.933 325.467 300.067C343.467 288.333 363.867 279.133 377.467 276.467C386.4 274.733 402.533 274.867 410.8 276.733ZM34.1333 291.267C36.4 293 40.1333 296.333 42.5333 298.6C45.8666 302.067 46.5333 303.4 45.4666 305.4C43.8666 308.333 38.9333 328.733 37.8666 336.867C37.3333 340.2 36.5333 343 35.8666 343C33.8666 343 25.0666 331.667 22.5333 325.933C17.0666 313.267 21.4666 288.867 29.4666 288.333C29.8666 288.333 32 289.667 34.1333 291.267ZM59.3333 308.467C63.0666 309.667 71.0666 311.533 77.3333 312.333C93.8666 314.467 99.8666 317.8 115.467 333.133C134.933 352.2 157.6 367.933 187.467 383C195.467 387 202.267 390.467 202.667 390.733C203.467 391.267 198.133 395.533 191.067 399.8L185.467 403.133L173.2 393.133C150.133 374.333 135.6 368.6 101.2 365C73.4666 362.067 54.2666 356.6 42.5333 348.2C38.6666 345.533 38.5333 345 39.3333 338.467C40.2666 331.133 44.5333 313.267 46.6666 307.533C47.7333 304.867 48.6666 304.333 50.4 305.133C51.6 305.667 55.7333 307.133 59.3333 308.467ZM298.667 322.867C298.667 324.2 297.733 327.933 296.667 331C294.133 338.067 294.133 341 296.667 343.4C298.667 345.533 303.067 345 311.733 341.533C319.733 338.2 322.667 344.067 319.333 356.6C317.867 362.2 321.467 367 327.2 367C329.6 367 333.333 366.333 335.6 365.667C338.667 364.6 341.067 364.733 346.133 366.333C354.267 369.133 378.667 383.133 378.667 385.133C378.667 386.6 354 411.533 345.6 418.333C341.6 421.667 340.533 421.933 334 421.133C323.067 419.933 306.8 414.333 299.467 409.267C295.2 406.333 291.2 402.067 288.133 397C280 383.667 271.867 380.067 250.667 380.2C236.533 380.333 226.667 379.267 226.667 377.533C226.667 376.6 245.067 361.267 276 336.6C283.733 330.467 291.2 324.333 292.667 323C296.133 319.8 298.667 319.667 298.667 322.867ZM65.3333 379.133C74.2666 381.933 82.9333 383.4 94.6666 384.2C113.867 385.533 124.4 388.467 142 397.267C151.6 402.2 162.667 408.733 166.533 411.933C168.8 413.8 154.4 420.2 140 423.8C114 430.2 78.6666 420.6 60.6666 402.467C52.9333 394.6 45.3333 382.333 43.4666 374.6L42.5333 371L47.6 373.133C50.4 374.333 58.4 377 65.3333 379.133ZM389.067 391C396 395.933 399.2 400.733 398 404.2C396.933 407.933 388.8 413.933 380.267 417.533C372.133 421 349.733 423.933 347.6 421.8C346.8 421 350.533 416.6 358.667 408.733C365.467 402.333 373.2 394.733 375.867 392.067C378.533 389.4 381.333 387.133 382.133 387.133C382.933 387 386.133 388.733 389.067 391ZM217.733 396.467C230.4 400.6 232.8 400.867 251.867 400.467C264.533 400.2 267.733 401.533 272.667 409.533C280.667 422.6 292.267 430.867 310.4 436.467C315.6 438.2 320 439.933 320 440.467C320 442.467 304.8 453.667 302.8 453.133C301.6 452.733 297.333 452.2 293.333 451.667C276.667 449.667 237.467 437.667 220.667 429.4C212.133 425.133 202.8 418.6 193.6 410.067L187.733 404.733L196.267 398.6C200.8 395.267 204.933 392.467 205.2 392.467C205.333 392.333 211.067 394.2 217.733 396.467ZM342.267 444.067C355.867 449.133 349.467 452.733 326 453.4L308.667 453.8L316 447.133C323.2 440.467 323.467 440.333 329.733 441C333.333 441.4 338.933 442.867 342.267 444.067Z" fill="white"/>
<path d="M221.2 515.8C219.067 518.467 221.067 522.2 225.067 522.733C228.667 523.267 231.6 518.333 229.2 515.533C227.2 513 223.467 513.133 221.2 515.8Z" fill="white"/>
</svg>
