<svg width="437" height="523" viewBox="0 0 437 523" fill="none" xmlns="http://www.w3.org/2000/svg">
<path d="M265.265 2.01602C263.799 3.61602 263.932 4.41602 265.665 6.14936C266.732 7.34936 268.732 7.88269 269.799 7.48269C272.599 6.41602 272.599 1.74936 269.799 0.68269C266.999 -0.383977 267.132 -0.383977 265.265 2.01602Z" fill="#0089F6"/>
<path d="M277.399 15.8827C274.865 17.3493 276.199 21.8827 279.265 21.8827C280.999 21.8827 282.065 20.816 282.332 19.0827C282.732 16.016 280.065 14.1493 277.399 15.8827Z" fill="#0089F6"/>
<path d="M289.532 30.816C287.399 32.9494 287.532 35.216 290.065 37.7494C291.665 39.3494 292.732 39.4827 294.732 38.5494C298.065 36.6827 298.065 32.416 294.732 30.5494C291.532 28.816 291.532 28.816 289.532 30.816Z" fill="#0089F6"/>
<path d="M298.599 47.216C298.599 47.616 299.532 50.9493 300.732 54.6827C302.199 58.9493 302.732 64.016 302.332 69.616C300.332 97.8827 273.265 128.016 216.199 165.749C185.665 185.749 144.199 210.549 141.132 210.549C140.065 210.416 135.132 205.483 129.932 199.349C113.265 179.483 104.865 175.216 90.9986 179.216C84.4653 181.083 81.932 182.816 74.5986 190.416C69.2653 195.883 62.0653 205.749 55.932 215.883C44.8653 234.416 29.932 255.749 18.1986 269.883C-3.13469 295.616 -5.53469 318.683 10.0653 344.683C15.532 353.749 20.1986 358.016 31.3986 364.416C38.332 368.416 39.6653 369.883 41.2653 374.816C47.932 396.283 64.4653 412.416 88.5986 421.349C100.199 425.616 101.265 425.749 121.265 425.749L141.932 425.883L155.799 420.283L169.799 414.683L175.132 419.349C178.199 421.883 184.732 427.616 189.799 431.883C194.865 436.283 204.199 442.416 210.465 445.616C226.332 453.483 258.199 465.083 275.799 469.216L283.132 470.949L278.999 474.416C273.932 478.816 273.265 479.349 253.932 494.416C245.132 501.216 237.665 507.349 237.399 508.149C236.865 509.616 244.199 504.283 261.265 491.083C267.532 486.283 275.665 479.883 279.532 476.949L286.465 471.616L298.865 473.216C324.999 476.683 354.065 470.283 379.799 455.616C398.065 445.083 415.399 421.349 416.865 404.149C417.932 392.549 415.932 387.883 405.132 378.149C396.465 370.149 396.065 369.616 398.465 367.616C403.132 363.616 420.865 340.549 426.465 331.349C435.132 316.683 437.665 308.816 436.865 298.016C436.332 289.883 435.799 288.549 431.799 284.549C426.199 279.216 412.732 273.883 401.932 272.683C380.732 270.416 349.532 280.816 322.199 299.216C318.332 301.749 314.865 303.883 314.332 303.883C313.799 303.883 312.332 300.416 311.132 296.149C308.199 286.549 307.132 285.216 302.732 285.216C297.265 285.216 294.865 282.683 291.799 273.883C287.932 262.949 285.532 258.549 283.265 258.549C280.599 258.549 275.132 250.683 274.199 245.616C272.065 234.149 242.599 195.216 233.532 191.749C228.999 190.016 220.465 190.283 215.399 192.416C203.132 197.483 196.332 209.083 197.799 221.749C198.599 228.016 198.332 229.483 196.065 231.749C193.132 234.683 183.532 236.549 175.932 235.483C168.332 234.549 159.532 229.616 150.465 221.349C143.932 215.616 142.732 213.883 144.199 212.549C145.132 211.616 156.465 204.683 169.265 197.216C247.799 150.683 282.999 121.883 298.065 91.216C302.065 83.216 303.132 79.216 303.665 71.3493C304.199 61.616 302.199 48.5493 299.799 47.0827C299.132 46.6827 298.599 46.816 298.599 47.216ZM105.799 201.883C107.932 203.749 112.865 208.949 116.599 213.616L123.532 221.883L105.399 233.749C85.3986 246.949 70.4653 260.816 61.932 274.149C58.9986 278.816 55.932 282.549 54.9986 282.549C52.5986 282.549 47.932 275.883 47.932 272.416C47.932 270.683 51.3986 263.083 55.7986 255.483C85.532 203.349 89.132 198.549 97.7986 198.549C100.332 198.549 103.532 199.883 105.799 201.883ZM234.065 215.483C240.199 221.883 246.599 234.416 246.599 240.149C246.599 242.949 245.399 246.016 243.265 248.416C239.132 253.349 238.865 260.149 242.732 264.016C244.465 265.749 246.332 266.416 247.665 265.883C259.799 261.216 264.465 266.283 258.599 277.883C252.332 290.016 256.599 295.349 270.332 292.416C277.932 290.949 281.132 297.349 276.599 305.216C273.932 309.883 274.199 316.416 276.999 319.883L279.399 322.816L286.332 319.349C298.599 313.083 299.265 315.349 287.665 324.149C283.532 327.349 272.865 335.883 263.932 343.216C254.999 350.549 242.065 361.083 235.132 366.683L222.465 376.949L213.532 373.216C197.399 366.549 170.332 351.216 152.599 338.683C146.732 334.683 135.799 325.083 128.332 317.616C117.532 306.816 112.732 303.083 104.999 299.349C99.6653 296.816 92.5986 294.283 89.2653 293.883C79.932 292.549 59.6653 286.283 58.9986 284.416C57.932 281.749 71.3986 263.349 80.5986 254.816C87.7986 248.016 113.265 230.149 122.465 225.216C125.532 223.616 126.065 223.883 130.465 228.816C137.932 237.083 150.599 246.949 159.265 251.216C166.599 254.816 168.465 255.216 180.599 255.216C192.865 255.216 194.732 254.816 203.932 250.683C209.399 248.149 215.265 244.683 216.999 242.949C219.665 240.016 219.932 238.949 219.132 228.549C218.332 219.349 218.599 216.683 220.465 213.883C223.665 209.083 228.199 209.616 234.065 215.483ZM410.732 276.283C420.732 278.683 429.132 283.616 432.999 289.216C441.399 301.483 430.332 328.016 404.199 358.416C399.399 364.016 395.265 368.816 394.999 369.216C392.999 371.616 362.599 349.883 358.065 342.949C353.399 335.483 349.265 332.149 342.732 330.683C335.265 329.083 334.465 328.149 331.265 318.149L328.599 309.883H322.999C312.732 309.883 313.265 307.483 325.399 299.616C343.399 287.883 363.799 278.683 377.399 276.016C386.332 274.283 402.465 274.416 410.732 276.283ZM34.0653 290.816C36.332 292.549 40.0653 295.883 42.4653 298.149C45.7986 301.616 46.4653 302.949 45.3986 304.949C43.7986 307.883 38.8653 328.283 37.7986 336.416C37.2653 339.749 36.4653 342.549 35.7986 342.549C33.7986 342.549 24.9986 331.216 22.4653 325.483C16.9986 312.816 21.3986 288.416 29.3986 287.883C29.7986 287.883 31.932 289.216 34.0653 290.816ZM59.2653 308.016C62.9986 309.216 70.9986 311.083 77.2653 311.883C93.7986 314.016 99.7986 317.349 115.399 332.683C134.865 351.749 157.532 367.483 187.399 382.549C195.399 386.549 202.199 390.016 202.599 390.283C203.399 390.816 198.065 395.083 190.999 399.349L185.399 402.683L173.132 392.683C150.065 373.883 135.532 368.149 101.132 364.549C73.3986 361.616 54.1986 356.149 42.4653 347.749C38.5986 345.083 38.4653 344.549 39.2653 338.016C40.1986 330.683 44.4653 312.816 46.5986 307.083C47.6653 304.416 48.5986 303.883 50.332 304.683C51.532 305.216 55.6653 306.683 59.2653 308.016ZM298.599 322.416C298.599 323.749 297.665 327.483 296.599 330.549C294.065 337.616 294.065 340.549 296.599 342.949C298.599 345.083 302.999 344.549 311.665 341.083C319.665 337.749 322.599 343.616 319.265 356.149C317.799 361.749 321.399 366.549 327.132 366.549C329.532 366.549 333.265 365.883 335.532 365.216C338.599 364.149 340.999 364.283 346.065 365.883C354.199 368.683 378.599 382.683 378.599 384.683C378.599 386.149 353.932 411.083 345.532 417.883C341.532 421.216 340.465 421.483 333.932 420.683C322.999 419.483 306.732 413.883 299.399 408.816C295.132 405.883 291.132 401.616 288.065 396.549C279.932 383.216 271.799 379.616 250.599 379.749C236.465 379.883 226.599 378.816 226.599 377.083C226.599 376.149 244.999 360.816 275.932 336.149C283.665 330.016 291.132 323.883 292.599 322.549C296.065 319.349 298.599 319.216 298.599 322.416ZM65.2653 378.683C74.1986 381.483 82.8653 382.949 94.5986 383.749C113.799 385.083 124.332 388.016 141.932 396.816C151.532 401.749 162.599 408.283 166.465 411.483C168.732 413.349 154.332 419.749 139.932 423.349C113.932 429.749 78.5986 420.149 60.5986 402.016C52.8653 394.149 45.2653 381.883 43.3986 374.149L42.4653 370.549L47.532 372.683C50.332 373.883 58.332 376.549 65.2653 378.683ZM388.999 390.549C395.932 395.483 399.132 400.283 397.932 403.749C396.865 407.483 388.732 413.483 380.199 417.083C372.065 420.549 349.665 423.483 347.532 421.349C346.732 420.549 350.465 416.149 358.599 408.283C365.399 401.883 373.132 394.283 375.799 391.616C378.465 388.949 381.265 386.683 382.065 386.683C382.865 386.549 386.065 388.283 388.999 390.549ZM217.665 396.016C230.332 400.149 232.732 400.416 251.799 400.016C264.465 399.749 267.665 401.083 272.599 409.083C280.599 422.149 292.199 430.416 310.332 436.016C315.532 437.749 319.932 439.483 319.932 440.016C319.932 442.016 304.732 453.216 302.732 452.683C301.532 452.283 297.265 451.749 293.265 451.216C276.599 449.216 237.399 437.216 220.599 428.949C212.065 424.683 202.732 418.149 193.532 409.616L187.665 404.283L196.199 398.149C200.732 394.816 204.865 392.016 205.132 392.016C205.265 391.883 210.999 393.749 217.665 396.016ZM342.199 443.616C355.799 448.683 349.399 452.283 325.932 452.949L308.599 453.349L315.932 446.683C323.132 440.016 323.399 439.883 329.665 440.549C333.265 440.949 338.865 442.416 342.199 443.616Z" fill="#0089F6"/>
<path d="M221.132 515.349C218.999 518.016 220.999 521.749 224.999 522.283C228.599 522.816 231.532 517.883 229.132 515.083C227.132 512.549 223.399 512.683 221.132 515.349Z" fill="#0089F6"/>
</svg>
