<?xml version="1.0" standalone="no"?>
<!DOCTYPE svg PUBLIC "-//W3C//DTD SVG 20010904//EN"
 "http://www.w3.org/TR/2001/REC-SVG-20010904/DTD/svg10.dtd">
<svg version="1.0" xmlns="http://www.w3.org/2000/svg"
 width="527.000000pt" height="496.000000pt" viewBox="0 0 527.000000 496.000000"
 preserveAspectRatio="xMidYMid meet">

<g transform="translate(0.000000,496.000000) scale(0.100000,-0.100000)"
fill="#000000" stroke="none">
<path d="M2890 4514 c-11 -12 -10 -18 3 -31 8 -9 23 -13 31 -10 21 8 21 43 0
51 -21 8 -20 8 -34 -10z"/>
<path d="M2981 4410 c-19 -11 -9 -45 14 -45 13 0 21 8 23 21 3 23 -17 37 -37
24z"/>
<path d="M3072 4298 c-16 -16 -15 -33 4 -52 12 -12 20 -13 35 -6 25 14 25 46
0 60 -24 13 -24 13 -39 -2z"/>
<path d="M3140 4175 c0 -3 7 -28 16 -56 11 -32 15 -70 12 -112 -15 -212 -218
-438 -646 -721 -229 -150 -540 -336 -563 -336 -8 1 -45 38 -84 84 -125 149
-188 181 -292 151 -49 -14 -68 -27 -123 -84 -40 -41 -94 -115 -140 -191 -83
-139 -195 -299 -283 -405 -160 -193 -178 -366 -61 -561 41 -68 76 -100 160
-148 52 -30 62 -41 74 -78 50 -161 174 -282 355 -349 87 -32 95 -33 245 -33
l155 -1 104 42 105 42 40 -35 c23 -19 72 -62 110 -94 38 -33 108 -79 155 -103
119 -59 358 -146 490 -177 l55 -13 -31 -26 c-38 -33 -43 -37 -188 -150 -66
-51 -122 -97 -124 -103 -4 -11 51 29 179 128 47 36 108 84 137 106 l52 40 93
-12 c196 -26 414 22 607 132 137 79 267 257 278 386 8 87 -7 122 -88 195 -65
60 -68 64 -50 79 35 30 168 203 210 272 65 110 84 169 78 250 -4 61 -8 71 -38
101 -42 40 -143 80 -224 89 -159 17 -393 -61 -598 -199 -29 -19 -55 -35 -59
-35 -4 0 -15 26 -24 58 -22 72 -30 82 -63 82 -41 0 -59 19 -82 85 -29 82 -47
115 -64 115 -20 0 -61 59 -68 97 -16 86 -237 378 -305 404 -34 13 -98 11 -136
-5 -92 -38 -143 -125 -132 -220 6 -47 4 -58 -13 -75 -22 -22 -94 -36 -151 -28
-57 7 -123 44 -191 106 -49 43 -58 56 -47 66 7 7 92 59 188 115 589 349 853
565 966 795 30 60 38 90 42 149 4 73 -11 171 -29 182 -5 3 -9 2 -9 -1z m-1446
-1160 c16 -14 53 -53 81 -88 l52 -62 -136 -89 c-150 -99 -262 -203 -326 -303
-22 -35 -45 -63 -52 -63 -18 0 -53 50 -53 76 0 13 26 70 59 127 223 391 250
427 315 427 19 0 43 -10 60 -25z m962 -102 c46 -48 94 -142 94 -185 0 -21 -9
-44 -25 -62 -31 -37 -33 -88 -4 -117 13 -13 27 -18 37 -14 91 35 126 -3 82
-90 -47 -91 -15 -131 88 -109 57 11 81 -37 47 -96 -20 -35 -18 -84 3 -110 l18
-22 52 26 c92 47 97 30 10 -36 -31 -24 -111 -88 -178 -143 -67 -55 -164 -134
-216 -176 l-95 -77 -67 28 c-121 50 -324 165 -457 259 -44 30 -126 102 -182
158 -81 81 -117 109 -175 137 -40 19 -93 38 -118 41 -70 10 -222 57 -227 71
-8 20 93 158 162 222 54 51 245 185 314 222 23 12 27 10 60 -27 56 -62 151
-136 216 -168 55 -27 69 -30 160 -30 92 0 106 3 175 34 41 19 85 45 98 58 20
22 22 30 16 108 -6 69 -4 89 10 110 24 36 58 32 102 -12z m1325 -456 c75 -18
138 -55 167 -97 63 -92 -20 -291 -216 -519 -36 -42 -67 -78 -69 -81 -15 -18
-243 145 -277 197 -35 56 -66 81 -115 92 -56 12 -62 19 -86 94 l-20 62 -42 0
c-77 0 -73 18 18 77 135 88 288 157 390 177 67 13 188 12 250 -2z m-2825 -109
c17 -13 45 -38 63 -55 25 -26 30 -36 22 -51 -12 -22 -49 -175 -57 -236 -4 -25
-10 -46 -15 -46 -15 0 -81 85 -100 128 -41 95 -8 278 52 282 3 0 19 -10 35
-22z m189 -129 c28 -9 88 -23 135 -29 124 -16 169 -41 286 -156 146 -143 316
-261 540 -374 60 -30 111 -56 114 -58 6 -4 -34 -36 -87 -68 l-42 -25 -92 75
c-173 141 -282 184 -540 211 -208 22 -352 63 -440 126 -29 20 -30 24 -24 73 7
55 39 189 55 232 8 20 15 24 28 18 9 -4 40 -15 67 -25z m1795 -108 c0 -10 -7
-38 -15 -61 -19 -53 -19 -75 0 -93 15 -16 48 -12 113 14 60 25 82 -19 57 -113
-11 -42 16 -78 59 -78 18 0 46 5 63 10 23 8 41 7 79 -5 61 -21 244 -126 244
-141 0 -11 -185 -198 -248 -249 -30 -25 -38 -27 -87 -21 -82 9 -204 51 -259
89 -32 22 -62 54 -85 92 -61 100 -122 127 -281 126 -106 -1 -180 7 -180 20 0
7 138 122 370 307 58 46 114 92 125 102 26 24 45 25 45 1z m-1750 -422 c67
-21 132 -32 220 -38 144 -10 223 -32 355 -98 72 -37 155 -86 184 -110 17 -14
-91 -62 -199 -89 -195 -48 -460 24 -595 160 -58 59 -115 151 -129 209 l-7 27
38 -16 c21 -9 81 -29 133 -45z m2428 -89 c52 -37 76 -73 67 -99 -8 -28 -69
-73 -133 -100 -61 -26 -229 -48 -245 -32 -6 6 22 39 83 98 51 48 109 105 129
125 20 20 41 37 47 37 6 1 30 -12 52 -29z m-1285 -41 c95 -31 113 -33 256 -30
95 2 119 -8 156 -68 60 -98 147 -160 283 -202 39 -13 72 -26 72 -30 0 -15
-114 -99 -129 -95 -9 3 -41 7 -71 11 -125 15 -419 105 -545 167 -64 32 -134
81 -203 145 l-44 40 64 46 c34 25 65 46 67 46 1 1 44 -13 94 -30z m934 -357
c102 -38 54 -65 -122 -70 l-130 -3 55 50 c54 50 56 51 103 46 27 -3 69 -14 94
-23z"/>
<path d="M2559 664 c-16 -20 -1 -48 29 -52 27 -4 49 33 31 54 -15 19 -43 18
-60 -2z"/>
</g>
</svg>
